{
  "accessors": [
    {
      "bufferView": 2,
      "componentType": 5126,
      "count": 1085,
      "max": [
        47.091068267822266,
        47.184165954589844,
        47.184169769287109
      ],
      "min": [
        -47.091064453125,
        -47.184165954589844,
        -47.184169769287109
      ],
      "type": "VEC3"
    },
    {
      "bufferView": 2,
      "byteOffset": 13020,
      "componentType": 5126,
      "count": 1085,
      "max": [
        0.99803382158279419,
        1,
        1
      ],
      "min": [
        -0.99803382158279419,
        -1,
        -1
      ],
      "type": "VEC3"
    },
    {
      "bufferView": 1,
      "componentType": 5126,
      "count": 1085,
      "max": [
        0.99015438556671143,
        1
      ],
      "min": [
        -0.20000004768371582,
        0
      ],
      "type": "VEC2"
    },
    {
      "bufferView": 0,
      "componentType": 5125,
      "count": 6000,
      "max": [
        1084
      ],
      "min": [
        0
      ],
      "type": "SCALAR"
    },
    {
      "bufferView": 2,
      "byteOffset": 26040,
      "componentType": 5126,
      "count": 1540,
      "max": [
        50.836219787597656,
        52.062934875488281,
        50.836223602294922
      ],
      "min": [
        -50.836231231689453,
        -52.016445159912109,
        -50.836223602294922
      ],
      "type": "VEC3"
    },
    {
      "bufferView": 2,
      "byteOffset": 44520,
      "componentType": 5126,
      "count": 1540,
      "max": [
        0.99999958276748657,
        0.99620515108108521,
        1
      ],
      "min": [
        -0.99999958276748657,
        -0.99911385774612427,
        -1
      ],
      "type": "VEC3"
    },
    {
      "bufferView": 1,
      "byteOffset": 8680,
      "componentType": 5126,
      "count": 1540,
      "max": [
        0.99178576469421387,
        1
      ],
      "min": [
        -0.20000004768371582,
        0
      ],
      "type": "VEC2"
    },
    {
      "bufferView": 2,
      "byteOffset": 63000,
      "componentType": 5126,
      "count": 1540,
      "max": [
        1.1444091796875e-05,
        3.5611538887023926,
        7.62939453125e-06
      ],
      "min": [
        -1.1444091796875e-05,
        -3.498145580291748,
        -1.1444091796875e-05
      ],
      "type": "VEC3"
    },
    {
      "bufferView": 2,
      "byteOffset": 81480,
      "componentType": 5126,
      "count": 1540,
      "max": [
        0.44943320751190186,
        0.2980404794216156,
        0.45835649967193604
      ],
      "min": [
        -0.43065807223320007,
        -0.2876964807510376,
        -0.49129748344421387
      ],
      "type": "VEC3"
    },
    {
      "bufferView": 2,
      "byteOffset": 99960,
      "componentType": 5126,
      "count": 1540,
      "max": [
        2.7685756683349609,
        3.5611538887023926,
        9.5367431640625e-06
      ],
      "min": [
        -2.9241418838500977,
        -3.498145580291748,
        -1.1444091796875e-05
      ],
      "type": "VEC3"
    },
    {
      "bufferView": 2,
      "byteOffset": 118440,
      "componentType": 5126,
      "count": 1540,
      "max": [
        0.44077825546264648,
        0.44217407703399658,
        0.6000102162361145
      ],
      "min": [
        -0.47600802779197693,
        -0.39823287725448608,
        -0.55990618467330933
      ],
      "type": "VEC3"
    },
    {
      "bufferView": 0,
      "byteOffset": 24000,
      "componentType": 5125,
      "count": 8640,
      "max": [
        1539
      ],
      "min": [
        0
      ],
      "type": "SCALAR"
    },
    {
      "bufferView": 3,
      "componentType": 5126,
      "count": 101,
      "max": [
        3.3333332538604736
      ],
      "min": [
        0
      ],
      "type": "SCALAR"
    },
    {
      "bufferView": 4,
      "componentType": 5126,
      "count": 101,
      "max": [
        0.76942086219787598,
        0.76942092180252075,
        1,
        1
      ],
      "min": [
        -0.72083944082260132,
        -0.68319624662399292,
        -0.6282462477684021,
        -0.46954849362373352
      ],
      "type": "VEC4"
    },
    {
      "bufferView": 3,
      "byteOffset": 404,
      "componentType": 5126,
      "count": 101,
      "max": [
        3.3333332538604736
      ],
      "min": [
        0
      ],
      "type": "SCALAR"
    },
    {
      "bufferView": 3,
      "byteOffset": 808,
      "componentType": 5126,
      "count": 202,
      "max": [
        1
      ],
      "min": [
        0
      ],
      "type": "SCALAR"
    }
  ],
  "animations": [
    {
      "channels": [
        {
          "sampler": 0,
          "target": {
            "node": 7,
            "path": "rotation"
          }
        },
        {
          "sampler": 1,
          "target": {
            "node": 8,
            "path": "weights"
          }
        }
      ],
      "name": "Take 001",
      "samplers": [
        {
          "input": 12,
          "interpolation": "LINEAR",
          "output": 13
        },
        {
          "input": 14,
          "interpolation": "LINEAR",
          "output": 15
        }
      ]
    }
  ],
  "asset": {
    "extras": {
      "author": "P3TroV! (https://sketchfab.com/T96X)",
      "license": "CC-BY-4.0 (http://creativecommons.org/licenses/by/4.0/)",
      "source": "https://sketchfab.com/3d-models/sun-animated-test-8c3ebc78ec014042a61144f46c6f13fa",
      "title": "Sun animated test"
    },
    "generator": "Sketchfab-9.72.0",
    "version": "2.0"
  },
  "bufferViews": [
    {
      "buffer": 0,
      "byteLength": 58560,
      "byteOffset": 0,
      "name": "floatBufferViews",
      "target": 34963
    },
    {
      "buffer": 0,
      "byteLength": 21000,
      "byteOffset": 58560,
      "byteStride": 8,
      "name": "floatBufferViews",
      "target": 34962
    },
    {
      "buffer": 0,
      "byteLength": 136920,
      "byteOffset": 79560,
      "byteStride": 12,
      "name": "floatBufferViews",
      "target": 34962
    },
    {
      "buffer": 0,
      "byteLength": 1616,
      "byteOffset": 216480,
      "name": "floatBufferViews"
    },
    {
      "buffer": 0,
      "byteLength": 1616,
      "byteOffset": 218096,
      "byteStride": 16,
      "name": "floatBufferViews"
    }
  ],
  "buffers": [
    {
      "byteLength": 219712,
      "uri": "scene.bin"
    }
  ],
  "images": [
    {
      "uri": "textures/01_-_Default_baseColor.jpeg"
    }
  ],
  "materials": [
    {
      "doubleSided": true,
      "emissiveFactor": [
        0.40263312745918539,
        0.076391200273035462,
        0
      ],
      "name": "01_-_Default",
      "pbrMetallicRoughness": {
        "baseColorFactor": [
          1,
          1,
          1,
          1
        ],
        "baseColorTexture": {
          "index": 0,
          "texCoord": 0
        },
        "metallicFactor": 0,
        "roughnessFactor": 0.89297135959999996
      }
    },
    {
      "alphaMode": "BLEND",
      "doubleSided": true,
      "emissiveFactor": [
        0.50689794447837377,
        0.34941732947164728,
        0.0014352328475523558
      ],
      "name": "02_-_Default",
      "pbrMetallicRoughness": {
        "baseColorFactor": [
          0.623529,
          0.47058800000000001,
          0,
          0.1107575850053267
        ],
        "metallicFactor": 0,
        "roughnessFactor": 1
      }
    }
  ],
  "meshes": [
    {
      "name": "GeoSphere001_01 - Default_0",
      "primitives": [
        {
          "attributes": {
            "NORMAL": 1,
            "POSITION": 0,
            "TEXCOORD_0": 2
          },
          "indices": 3,
          "material": 0,
          "mode": 4
        }
      ]
    },
    {
      "name": "0",
      "primitives": [
        {
          "attributes": {
            "NORMAL": 5,
            "POSITION": 4,
            "TEXCOORD_0": 6
          },
          "indices": 11,
          "material": 1,
          "mode": 4,
          "targets": [
            {
              "NORMAL": 8,
              "POSITION": 7
            },
            {
              "NORMAL": 10,
              "POSITION": 9
            }
          ]
        }
      ],
      "weights": [
        0,
        0
      ]
    }
  ],
  "nodes": [
    {
      "children": [
        1
      ],
      "name": "RootNode (gltf orientation matrix)",
      "rotation": [
        -0.70710678118654746,
        -0,
        -0,
        0.70710678118654757
      ]
    },
    {
      "children": [
        2
      ],
      "matrix": [
        0.021695293486118317,
        0,
        0,
        0,
        0,
        0.021695293486118317,
        0,
        0,
        0,
        0,
        0.021695293486118317,
        0,
        0,
        0,
        0,
        1
      ],
      "name": "RootNode (model correction matrix)"
    },
    {
      "children": [
        3
      ],
      "matrix": [
        1,
        0,
        0,
        0,
        0,
        -1,
        0,
        0,
        0,
        0,
        -1,
        0,
        0,
        0,
        0,
        1
      ],
      "name": "23c71f95b90948a0bb8746260230a45e.fbx"
    },
    {
      "children": [
        4
      ],
      "name": ""
    },
    {
      "children": [
        5,
        7
      ],
      "name": "RootNode"
    },
    {
      "children": [
        6
      ],
      "name": "GeoSphere001"
    },
    {
      "mesh": 0,
      "name": "GeoSphere001_01 - Default_0"
    },
    {
      "children": [
        8
      ],
      "name": "GeoSphere002",
      "scale": [
        0.96408021450042725,
        0.96408021450042725,
        0.96408021450042725
      ]
    },
    {
      "mesh": 1,
      "name": "0"
    }
  ],
  "samplers": [
    {
      "magFilter": 9729,
      "minFilter": 9987,
      "wrapS": 10497,
      "wrapT": 10497
    }
  ],
  "scene": 0,
  "scenes": [
    {
      "name": "OSG_Scene",
      "nodes": [
        0
      ]
    }
  ],
  "textures": [
    {
      "sampler": 0,
      "source": 0
    }
  ]
}

