{
  "accessors": [
    {
      "bufferView": 2,
      "componentType": 5126,
      "count": 442,
      "max": [
        302.598388671875,
        121.32569885253906,
        152.49510192871094
      ],
      "min": [
        -302.598388671875,
        -249.5800018310547,
        -74.15509796142578
      ],
      "type": "VEC3"
    },
    {
      "bufferView": 2,
      "byteOffset": 5304,
      "componentType": 5126,
      "count": 442,
      "max": [
        0.9981663823127747,
        0.24906066060066223,
        0.9977980852127075
      ],
      "min": [
        -0.9981656670570374,
        -0.9858990907669067,
        -0.37240543961524963
      ],
      "type": "VEC3"
    },
    {
      "bufferView": 1,
      "componentType": 5126,
      "count": 442,
      "max": [
        0.8184000253677368,
        0.9994999766349792
      ],
      "min": [
        0.005499999970197678,
        0.024399999529123306
      ],
      "type": "VEC2"
    },
    {
      "bufferView": 0,
      "componentType": 5125,
      "count": 2064,
      "type": "SCALAR"
    },
    {
      "bufferView": 2,
      "byteOffset": 10608,
      "componentType": 5126,
      "count": 1844,
      "max": [
        307.7275085449219,
        333.02679443359375,
        154.6125946044922
      ],
      "min": [
        -307.7275085449219,
        -351.4997863769531,
        -154.6125946044922
      ],
      "type": "VEC3"
    },
    {
      "bufferView": 2,
      "byteOffset": 32736,
      "componentType": 5126,
      "count": 1844,
      "max": [
        0.9992403388023376,
        1.0,
        0.9998816847801208
      ],
      "min": [
        -0.9992403388023376,
        -1.0,
        -0.9998816847801208
      ],
      "type": "VEC3"
    },
    {
      "bufferView": 1,
      "byteOffset": 3536,
      "componentType": 5126,
      "count": 1844,
      "max": [
        0.9976000189781189,
        0.9976000189781189
      ],
      "min": [
        0.13729999959468842,
        0.006800000090152025
      ],
      "type": "VEC2"
    },
    {
      "bufferView": 0,
      "byteOffset": 8256,
      "componentType": 5125,
      "count": 7530,
      "type": "SCALAR"
    },
    {
      "bufferView": 2,
      "byteOffset": 54864,
      "componentType": 5126,
      "count": 3264,
      "max": [
        306.398193359375,
        351.4997863769531,
        110.00980377197266
      ],
      "min": [
        -306.398193359375,
        -253.17799377441406,
        -119.09719848632813
      ],
      "type": "VEC3"
    },
    {
      "bufferView": 2,
      "byteOffset": 94032,
      "componentType": 5126,
      "count": 3264,
      "max": [
        0.9996913075447083,
        1.0,
        1.0
      ],
      "min": [
        -0.9997437596321106,
        -1.0,
        -1.0
      ],
      "type": "VEC3"
    },
    {
      "bufferView": 1,
      "byteOffset": 18288,
      "componentType": 5126,
      "count": 3264,
      "max": [
        0.7250999808311462,
        0.9972000122070313
      ],
      "min": [
        0.0052999998442828655,
        0.002899999963119626
      ],
      "type": "VEC2"
    },
    {
      "bufferView": 0,
      "byteOffset": 38376,
      "componentType": 5125,
      "count": 9798,
      "type": "SCALAR"
    },
    {
      "bufferView": 2,
      "byteOffset": 133200,
      "componentType": 5126,
      "count": 897,
      "max": [
        141.8986053466797,
        -151.3040008544922,
        102.31770324707031
      ],
      "min": [
        -141.1851043701172,
        -266.08990478515625,
        -51.78310012817383
      ],
      "type": "VEC3"
    },
    {
      "bufferView": 2,
      "byteOffset": 143964,
      "componentType": 5126,
      "count": 897,
      "max": [
        0.9991946816444397,
        0.9534544944763184,
        0.9997424483299255
      ],
      "min": [
        -0.9991948008537292,
        -0.9929223656654358,
        -0.9988827109336853
      ],
      "type": "VEC3"
    },
    {
      "bufferView": 1,
      "byteOffset": 44400,
      "componentType": 5126,
      "count": 897,
      "max": [
        0.9970999956130981,
        0.9923999905586243
      ],
      "min": [
        0.25220000743865967,
        0.004399999976158142
      ],
      "type": "VEC2"
    },
    {
      "bufferView": 0,
      "byteOffset": 77568,
      "componentType": 5125,
      "count": 3033,
      "type": "SCALAR"
    },
    {
      "bufferView": 2,
      "byteOffset": 154728,
      "componentType": 5126,
      "count": 66,
      "max": [
        109.3770980834961,
        241.41859436035156,
        -68.08599853515625
      ],
      "min": [
        -109.37779998779297,
        239.06179809570313,
        -97.84590148925781
      ],
      "type": "VEC3"
    },
    {
      "bufferView": 2,
      "byteOffset": 155520,
      "componentType": 5126,
      "count": 66,
      "max": [
        0.2334316223859787,
        1.0,
        0.23343464732170105
      ],
      "min": [
        -0.23343320190906525,
        0.9723269939422607,
        -0.2334337830543518
      ],
      "type": "VEC3"
    },
    {
      "bufferView": 1,
      "byteOffset": 51576,
      "componentType": 5126,
      "count": 66,
      "max": [
        0.9937000274658203,
        0.993399977684021
      ],
      "min": [
        0.5170999765396118,
        0.14550000429153442
      ],
      "type": "VEC2"
    },
    {
      "bufferView": 0,
      "byteOffset": 89700,
      "componentType": 5125,
      "count": 288,
      "type": "SCALAR"
    },
    {
      "bufferView": 2,
      "byteOffset": 156312,
      "componentType": 5126,
      "count": 130,
      "max": [
        122.91790008544922,
        -190.85069274902344,
        -91.21430206298828
      ],
      "min": [
        -122.9186019897461,
        -218.95269775390625,
        -111.42520141601563
      ],
      "type": "VEC3"
    },
    {
      "bufferView": 2,
      "byteOffset": 157872,
      "componentType": 5126,
      "count": 130,
      "max": [
        0.9775063991546631,
        0.08327603340148926,
        0.9294900298118591
      ],
      "min": [
        -0.977502703666687,
        -1.0,
        -0.996881365776062
      ],
      "type": "VEC3"
    },
    {
      "bufferView": 1,
      "byteOffset": 52104,
      "componentType": 5126,
      "count": 130,
      "max": [
        0.9775000214576721,
        0.97079998254776
      ],
      "min": [
        0.7085000276565552,
        0.22849999368190765
      ],
      "type": "VEC2"
    },
    {
      "bufferView": 0,
      "byteOffset": 90852,
      "componentType": 5125,
      "count": 492,
      "type": "SCALAR"
    },
    {
      "bufferView": 2,
      "byteOffset": 159432,
      "componentType": 5126,
      "count": 390,
      "max": [
        265.0155944824219,
        113.72380065917969,
        -41.445899963378906
      ],
      "min": [
        -265.0155944824219,
        100.6417007446289,
        -74.04329681396484
      ],
      "type": "VEC3"
    },
    {
      "bufferView": 2,
      "byteOffset": 164112,
      "componentType": 5126,
      "count": 390,
      "max": [
        0.9893962144851685,
        -0.1315692663192749,
        0.9789300560951233
      ],
      "min": [
        -0.989395797252655,
        -0.9979443550109863,
        -0.9789303541183472
      ],
      "type": "VEC3"
    },
    {
      "bufferView": 1,
      "byteOffset": 53144,
      "componentType": 5126,
      "count": 390,
      "max": [
        0.6557999849319458,
        0.7792999744415283
      ],
      "min": [
        0.576200008392334,
        0.7035999894142151
      ],
      "type": "VEC2"
    },
    {
      "bufferView": 0,
      "byteOffset": 92820,
      "componentType": 5125,
      "count": 2016,
      "type": "SCALAR"
    }
  ],
  "asset": {
    "extras": {
      "author": "OctoRock Studios (https://sketchfab.com/Piklopedian)",
      "license": "CC-BY-4.0 (http://creativecommons.org/licenses/by/4.0/)",
      "source": "https://sketchfab.com/3d-models/red-rocket-8963725ef8c8488ba9f03aadcbec7675",
      "title": "Red Rocket"
    },
    "generator": "Sketchfab-11.15.0",
    "version": "2.0"
  },
  "bufferViews": [
    {
      "buffer": 0,
      "byteLength": 100884,
      "name": "floatBufferViews",
      "target": 34963
    },
    {
      "buffer": 0,
      "byteLength": 56264,
      "byteOffset": 100884,
      "byteStride": 8,
      "name": "floatBufferViews",
      "target": 34962
    },
    {
      "buffer": 0,
      "byteLength": 168792,
      "byteOffset": 157148,
      "byteStride": 12,
      "name": "floatBufferViews",
      "target": 34962
    }
  ],
  "buffers": [
    {
      "byteLength": 325940,
      "uri": "scene.bin"
    }
  ],
  "images": [
    {
      "uri": "textures/Material__25_baseColor.png"
    },
    {
      "uri": "textures/Material__26_baseColor.png"
    },
    {
      "uri": "textures/Material__28_baseColor.png"
    }
  ],
  "materials": [
    {
      "alphaMode": "BLEND",
      "doubleSided": true,
      "name": "Material__25",
      "pbrMetallicRoughness": {
        "baseColorFactor": [
          1.0,
          1.0,
          1.0,
          0.5610859797287027
        ],
        "baseColorTexture": {
          "index": 0
        },
        "metallicFactor": 0.0,
        "roughnessFactor": 0.6
      }
    },
    {
      "doubleSided": true,
      "name": "Material__26",
      "pbrMetallicRoughness": {
        "baseColorTexture": {
          "index": 1
        },
        "metallicFactor": 0.0,
        "roughnessFactor": 0.6
      }
    },
    {
      "doubleSided": true,
      "name": "Material__27",
      "pbrMetallicRoughness": {
        "baseColorTexture": {
          "index": 1
        },
        "metallicFactor": 0.0,
        "roughnessFactor": 0.6
      }
    },
    {
      "doubleSided": true,
      "name": "Material__28",
      "pbrMetallicRoughness": {
        "baseColorTexture": {
          "index": 2
        },
        "metallicFactor": 0.0,
        "roughnessFactor": 0.6
      }
    },
    {
      "doubleSided": true,
      "emissiveFactor": [
        1.0,
        1.0,
        1.0
      ],
      "emissiveTexture": {
        "index": 0
      },
      "name": "Material__29",
      "pbrMetallicRoughness": {
        "baseColorTexture": {
          "index": 0
        },
        "metallicFactor": 0.0,
        "roughnessFactor": 0.6
      }
    },
    {
      "doubleSided": true,
      "emissiveFactor": [
        1.0,
        1.0,
        1.0
      ],
      "emissiveTexture": {
        "index": 0
      },
      "name": "Material__30",
      "pbrMetallicRoughness": {
        "baseColorTexture": {
          "index": 0
        },
        "metallicFactor": 0.0,
        "roughnessFactor": 0.6
      }
    },
    {
      "doubleSided": true,
      "emissiveFactor": [
        1.0,
        1.0,
        1.0
      ],
      "emissiveTexture": {
        "index": 0
      },
      "name": "Tex_0230_0_dds",
      "pbrMetallicRoughness": {
        "baseColorTexture": {
          "index": 0
        },
        "metallicFactor": 0.0,
        "roughnessFactor": 0.6
      }
    }
  ],
  "meshes": [
    {
      "name": "Object_0",
      "primitives": [
        {
          "attributes": {
            "NORMAL": 1,
            "POSITION": 0,
            "TEXCOORD_0": 2
          },
          "indices": 3,
          "material": 0,
          "mode": 4
        }
      ]
    },
    {
      "name": "Object_1",
      "primitives": [
        {
          "attributes": {
            "NORMAL": 5,
            "POSITION": 4,
            "TEXCOORD_0": 6
          },
          "indices": 7,
          "material": 1,
          "mode": 4
        }
      ]
    },
    {
      "name": "Object_2",
      "primitives": [
        {
          "attributes": {
            "NORMAL": 9,
            "POSITION": 8,
            "TEXCOORD_0": 10
          },
          "indices": 11,
          "material": 2,
          "mode": 4
        }
      ]
    },
    {
      "name": "Object_3",
      "primitives": [
        {
          "attributes": {
            "NORMAL": 13,
            "POSITION": 12,
            "TEXCOORD_0": 14
          },
          "indices": 15,
          "material": 3,
          "mode": 4
        }
      ]
    },
    {
      "name": "Object_4",
      "primitives": [
        {
          "attributes": {
            "NORMAL": 17,
            "POSITION": 16,
            "TEXCOORD_0": 18
          },
          "indices": 19,
          "material": 4,
          "mode": 4
        }
      ]
    },
    {
      "name": "Object_5",
      "primitives": [
        {
          "attributes": {
            "NORMAL": 21,
            "POSITION": 20,
            "TEXCOORD_0": 22
          },
          "indices": 23,
          "material": 5,
          "mode": 4
        }
      ]
    },
    {
      "name": "Object_6",
      "primitives": [
        {
          "attributes": {
            "NORMAL": 25,
            "POSITION": 24,
            "TEXCOORD_0": 26
          },
          "indices": 27,
          "material": 6,
          "mode": 4
        }
      ]
    }
  ],
  "nodes": [
    {
      "children": [
        1
      ],
      "matrix": [
        -0.3051820397377014,
        -0.48043602705001814,
        -0.8222196698188783,
        0.0,
        -0.8637784719467163,
        -0.22386032342910778,
        0.4514125287532806,
        0.0,
        -0.40093719959259033,
        0.8479786515235902,
        -0.34667214751243575,
        0.0,
        -0.0022423435002565384,
        -0.0008866094867698842,
        -0.0027106348425149918,
        1.0
      ],
      "name": "Sketchfab_model"
    },
    {
      "children": [
        2,
        3,
        4,
        5,
        6,
        7,
        8
      ],
      "name": "Chuchu Rocket.obj.cleaner.materialmerger.gles"
    },
    {
      "mesh": 0,
      "name": "Object_2"
    },
    {
      "mesh": 1,
      "name": "Object_3"
    },
    {
      "mesh": 2,
      "name": "Object_4"
    },
    {
      "mesh": 3,
      "name": "Object_5"
    },
    {
      "mesh": 4,
      "name": "Object_6"
    },
    {
      "mesh": 5,
      "name": "Object_7"
    },
    {
      "mesh": 6,
      "name": "Object_8"
    }
  ],
  "samplers": [
    {
      "magFilter": 9729,
      "minFilter": 9987,
      "wrapS": 10497,
      "wrapT": 10497
    }
  ],
  "scene": 0,
  "scenes": [
    {
      "name": "Sketchfab_Scene",
      "nodes": [
        0
      ]
    }
  ],
  "textures": [
    {
      "sampler": 0,
      "source": 0
    },
    {
      "sampler": 0,
      "source": 1
    },
    {
      "sampler": 0,
      "source": 2
    }
  ]
}
